<?xml version="1.0" standalone="no"?>
<!DOCTYPE svg PUBLIC "-//W3C//DTD SVG 20010904//EN"
 "http://www.w3.org/TR/2001/REC-SVG-20010904/DTD/svg10.dtd">
<svg xmlns="http://www.w3.org/2000/svg" width="224" height="245" viewBox="0 0 224 245" fill="none">
  <path d="M186.619 32.797L123.299 121.445L125.046 124.065L212.383 57.2515C204.698 46.4217 192.005 36.4361 186.619 32.797Z" stroke="black" stroke-width="5.24025" stroke-linecap="round"/>
  <path d="M4.08199 126.684H113.691V128.868L9.32225 162.493C3.38329 148.169 3.35418 132.653 4.08199 126.684Z" stroke="black" stroke-width="5.24025" stroke-linecap="round"/>
  <path d="M18.1857 70.9455L114.13 123.943L113.074 125.854L5.45877 104.824C7.18575 89.4142 14.663 75.8176 18.1857 70.9455Z" stroke="black" stroke-width="5.24025" stroke-linecap="round"/>
  <path d="M155.613 236.294L121.115 131.489H119.368V241.534C137.884 243.63 151.246 238.914 155.613 236.294Z" stroke="black" stroke-width="5.24025" stroke-linecap="round"/>
  <path d="M82.688 235.857L117.186 131.052H118.933V241.097C100.418 243.193 87.0549 238.477 82.688 235.857Z" stroke="black" stroke-width="5.24025" stroke-linecap="round"/>
  <path d="M49.4877 219.631L113.964 130.094L115.63 130.62L82.4689 235.55C64.1824 231.969 52.8621 223.445 49.4877 219.631Z" stroke="black" stroke-width="5.24025" stroke-linecap="round"/>
  <path d="M27.4373 194.784L114.127 129.742L9.81087 162.683C14.3457 180.756 23.4514 191.614 27.4373 194.784Z" stroke="black" stroke-width="5.24025" stroke-linecap="round"/>
  <path d="M50.809 33.6703L116.312 122.755L25.0444 58.9982C32.0314 47.4696 45.1321 37.3094 50.809 33.6703Z" stroke="black" stroke-width="5.24025" stroke-linecap="round"/>
  <path d="M108.53 13.2451L119.144 123.309L73.4271 21.7969C85.3338 15.4758 101.79 13.4619 108.53 13.2451Z" stroke="black" stroke-width="5.24025" stroke-linecap="round"/>
  <path d="M161.712 22.9349L119.612 125.181L126.686 14.0748C140.166 14.057 155.653 19.9741 161.712 22.9349Z" stroke="black" stroke-width="5.24025" stroke-linecap="round"/>
  <path d="M215.44 94.8069L123.299 125.375L125.046 127.122L221.117 125.375C220.768 107.558 217.187 97.5726 215.44 94.8069Z" stroke="black" stroke-width="5.24025" stroke-linecap="round"/>
  <path d="M122.424 128.432L123.947 128.904M123.947 128.904L198.407 152.013C197.68 155.943 194.652 166.336 188.364 176.467L123.947 128.904Z" stroke="black" stroke-width="5.24025" stroke-linecap="round"/>
  <path d="M124.609 130.808L125.523 132.115M125.523 132.115L170.174 196.026C173.697 194.138 182.678 188.094 190.418 179.023L125.523 132.115Z" stroke="black" stroke-width="5.24025" stroke-linecap="round"/>
  <path d="M196.617 152.76C198.175 140.938 196.655 130.22 195.699 126.339L121.114 126.339L196.617 152.76Z" stroke="black" stroke-width="5.24025" stroke-linecap="round"/>
  <circle cx="119.367" cy="124.938" r="7.86038" fill="black"/>
</svg>
